<svg width="350" height="350" viewBox="0 0 350 350" fill="none" xmlns="http://www.w3.org/2000/svg">
<g clip-path="url(#clip0_1_2)">
<rect width="350" height="350" fill="#FAFAFA"/>
<rect width="350" height="21" fill="#151419"/>
<rect y="110" width="350" height="20" fill="#151419"/>
<rect y="219" width="350" height="20" fill="#151419"/>
<rect y="329" width="350" height="21" fill="#151419"/>
<path d="M332.647 58.0107C335.084 57.8876 337.404 58.8136 339.673 61.0967C341.981 63.4199 342.988 65.7451 343 68.1064C343.011 70.3067 342.142 72.4708 340.124 74.6309L339.705 75.0625L339.7 75.0674L129.154 285.863C125.689 289.33 121.748 291 117.246 291C112.744 291 108.802 289.33 105.337 285.863L9.99805 190.475C8.05646 188.532 7.08245 186.288 7.00391 183.656C6.92871 181.136 7.89047 178.773 10.1436 176.505C12.4243 174.209 14.7388 173.209 17.1279 173.209C19.5172 173.209 21.8324 174.209 24.1133 176.505L24.1172 176.509L115.83 268.388L117.245 269.805L118.66 268.389L325.863 61.1016C327.82 59.1437 330.058 58.1417 332.647 58.0107Z" fill="#151419" stroke="#FAFAFA" stroke-width="4"/>
</g>
<defs>
<clipPath id="clip0_1_2">
<rect width="350" height="350" fill="white"/>
</clipPath>
</defs>
</svg>
